<svg xmlns="http://www.w3.org/2000/svg" viewBox="0 0 32 32" fill="none">
  <!-- Background -->
  <rect width="32" height="32" rx="6" fill="url(#gradient)"/>
  
  <!-- Air quality icon - stylized cloud with particles -->
  <path d="M8 20c-1.1 0-2-.9-2-2s.9-2 2-2c.2-2.2 2-4 4.2-4 1.5 0 2.8.8 3.5 2 .3-.1.6-.1.9-.1 2.2 0 4 1.8 4 4 0 .4-.1.8-.2 1.2.7.4 1.2 1.1 1.2 1.9 0 1.1-.9 2-2 2H8z" fill="white" opacity="0.9"/>
  
  <!-- Particles -->
  <circle cx="10" cy="14" r="1" fill="#6366f1" opacity="0.8"/>
  <circle cx="14" cy="12" r="0.5" fill="#8b5cf6" opacity="0.7"/>
  <circle cx="18" cy="15" r="0.8" fill="#06b6d4" opacity="0.6"/>
  <circle cx="20" cy="18" r="0.6" fill="#10b981" opacity="0.7"/>
  <circle cx="12" cy="24" r="0.4" fill="#6366f1" opacity="0.5"/>
  
  <!-- Gradient definition -->
  <defs>
    <linearGradient id="gradient" x1="0%" y1="0%" x2="100%" y2="100%">
      <stop offset="0%" style="stop-color:#1e1b4b;stop-opacity:1" />
      <stop offset="50%" style="stop-color:#312e81;stop-opacity:1" />
      <stop offset="100%" style="stop-color:#1e1b4b;stop-opacity:1" />
    </linearGradient>
  </defs>
</svg>